<svg width="867" height="226" viewBox="0 0 867 226" fill="none" xmlns="http://www.w3.org/2000/svg">
  <rect width="867" height="226" fill="#2A2A2A" />
  <path
    d="M103.808 159.536C99.2855 159.536 95.0615 158.981 91.1361 157.872C87.2108 156.763 83.7121 155.227 80.6401 153.264C77.5681 151.216 75.0081 148.955 72.9601 146.48C70.9975 144.005 69.7175 141.403 69.1201 138.672L86.2721 133.552C87.3815 136.453 89.3441 138.971 92.1601 141.104C94.9761 143.152 98.5175 144.219 102.784 144.304C107.307 144.389 110.976 143.408 113.792 141.36C116.693 139.312 118.144 136.667 118.144 133.424C118.144 130.608 116.992 128.261 114.688 126.384C112.469 124.421 109.397 122.928 105.472 121.904L93.8241 118.832C89.4721 117.723 85.6321 116.059 82.3041 113.84C78.9761 111.536 76.3735 108.72 74.4961 105.392C72.6188 102.064 71.6801 98.1813 71.6801 93.744C71.6801 85.296 74.4534 78.7253 80.0001 74.032C85.6321 69.2533 93.5681 66.864 103.808 66.864C109.525 66.864 114.517 67.7173 118.784 69.424C123.136 71.0453 126.763 73.392 129.664 76.464C132.565 79.536 134.784 83.1627 136.32 87.344L119.296 92.592C118.272 89.6907 116.395 87.216 113.664 85.168C110.933 83.12 107.477 82.096 103.296 82.096C99.0295 82.096 95.6588 83.0773 93.1841 85.04C90.7948 87.0027 89.6001 89.776 89.6001 93.36C89.6001 96.176 90.5388 98.3947 92.4161 100.016C94.3788 101.637 97.0241 102.875 100.352 103.728L112.128 106.672C119.808 108.549 125.781 111.92 130.048 116.784C134.315 121.648 136.448 127.067 136.448 133.04C136.448 138.331 135.168 142.981 132.608 146.992C130.048 150.917 126.336 153.989 121.472 156.208C116.608 158.427 110.72 159.536 103.808 159.536Z"
    fill="url(#paint0_linear_269_9)" />
  <path
    d="M149.174 158L149.046 67.632H165.942L166.07 158H149.174ZM191.67 167V125.232L208.566 121.392V167H191.67ZM191.67 125.232C191.67 120.88 191.158 117.509 190.134 115.12C189.11 112.731 187.702 111.024 185.91 110C184.118 108.891 182.027 108.336 179.638 108.336C175.286 108.251 171.915 109.573 169.526 112.304C167.222 115.035 166.07 119.088 166.07 124.464H160.438C160.438 117.637 161.419 111.877 163.382 107.184C165.43 102.405 168.246 98.7787 171.83 96.304C175.499 93.744 179.723 92.464 184.502 92.464C192.353 92.464 198.326 94.8533 202.422 99.632C206.518 104.325 208.566 111.579 208.566 121.392L191.67 125.232Z"
    fill="url(#paint1_linear_269_9)" />
  <path
    d="M260.446 158L259.806 145.072V125.616C259.806 121.776 259.379 118.533 258.526 115.888C257.673 113.157 256.35 111.109 254.558 109.744C252.851 108.293 250.547 107.568 247.646 107.568C245.086 107.568 242.782 108.123 240.734 109.232C238.686 110.341 236.937 112.133 235.486 114.608L220.126 109.36C221.321 106.629 223.07 103.984 225.374 101.424C227.678 98.7787 230.665 96.6453 234.334 95.024C238.089 93.3173 242.654 92.464 248.03 92.464C254.43 92.464 259.763 93.616 264.03 95.92C268.382 98.224 271.625 101.637 273.758 106.16C275.891 110.597 276.915 116.059 276.83 122.544L276.446 158H260.446ZM242.782 159.536C235.102 159.536 229.129 157.829 224.862 154.416C220.681 151.003 218.59 146.181 218.59 139.952C218.59 133.125 220.851 128.005 225.374 124.592C229.982 121.093 236.425 119.344 244.702 119.344H260.958V131.888H250.59C245.043 131.888 241.203 132.571 239.07 133.936C236.937 135.216 235.87 137.051 235.87 139.44C235.87 141.317 236.723 142.811 238.43 143.92C240.137 144.944 242.526 145.456 245.598 145.456C248.329 145.456 250.761 144.816 252.894 143.536C255.027 142.171 256.691 140.464 257.886 138.416C259.166 136.283 259.806 134.107 259.806 131.888H264.286C264.286 140.592 262.579 147.376 259.166 152.24C255.838 157.104 250.377 159.536 242.782 159.536Z"
    fill="url(#paint2_linear_269_9)" />
  <path
    d="M384.724 159.536C378.409 159.536 372.82 158.128 367.956 155.312C363.092 152.411 359.252 148.443 356.436 143.408C353.705 138.373 352.34 132.571 352.34 126C352.34 119.429 353.748 113.627 356.564 108.592C359.465 103.557 363.391 99.632 368.34 96.816C373.375 93.9147 379.135 92.464 385.62 92.464C391.167 92.464 396.287 93.9573 400.98 96.944C405.759 99.8453 409.599 104.155 412.5 109.872C415.401 115.504 416.852 122.373 416.852 130.48H399.7C399.785 124.848 399.188 120.368 397.908 117.04C396.713 113.627 395.007 111.195 392.788 109.744C390.569 108.208 387.967 107.44 384.98 107.44C381.652 107.44 378.836 108.123 376.532 109.488C374.228 110.853 372.479 112.944 371.284 115.76C370.175 118.491 369.62 122.075 369.62 126.512C369.62 130.352 370.388 133.552 371.924 136.112C373.46 138.672 375.508 140.635 378.068 142C380.628 143.28 383.444 143.92 386.516 143.92C389.844 143.92 392.532 143.195 394.58 141.744C396.713 140.293 398.335 138.416 399.444 136.112L415.316 142.256C413.524 145.84 411.177 148.955 408.276 151.6C405.46 154.16 402.089 156.123 398.164 157.488C394.239 158.853 389.759 159.536 384.724 159.536ZM363.348 130.48L363.476 117.296H408.532V130.48H363.348Z"
    fill="url(#paint3_linear_269_9)" />
  <path
    d="M450.735 159.536C446.042 159.536 441.946 158.853 438.447 157.488C434.948 156.037 432.004 154.16 429.615 151.856C427.311 149.552 425.647 147.035 424.623 144.304L433.583 140.592C435.034 143.493 437.21 145.84 440.111 147.632C443.012 149.424 446.212 150.32 449.711 150.32C453.722 150.32 457.092 149.552 459.823 148.016C462.554 146.395 463.919 144.133 463.919 141.232C463.919 138.587 462.895 136.453 460.847 134.832C458.884 133.211 455.94 131.888 452.015 130.864L445.871 129.2C440.068 127.664 435.546 125.36 432.303 122.288C429.06 119.131 427.439 115.589 427.439 111.664C427.439 105.605 429.402 100.912 433.327 97.584C437.338 94.1707 443.268 92.464 451.119 92.464C454.874 92.464 458.287 93.0187 461.359 94.128C464.431 95.2373 467.076 96.816 469.295 98.864C471.514 100.827 473.135 103.173 474.159 105.904L465.199 109.872C464.09 106.971 462.255 104.88 459.695 103.6C457.135 102.32 454.02 101.68 450.351 101.68C446.426 101.68 443.354 102.533 441.135 104.24C438.916 105.861 437.807 108.165 437.807 111.152C437.807 112.859 438.703 114.48 440.495 116.016C442.372 117.467 445.103 118.661 448.687 119.6L455.087 121.264C459.268 122.288 462.767 123.824 465.583 125.872C468.399 127.835 470.532 130.096 471.983 132.656C473.434 135.216 474.159 137.947 474.159 140.848C474.159 144.688 473.135 148.016 471.087 150.832C469.039 153.648 466.266 155.824 462.767 157.36C459.268 158.811 455.258 159.536 450.735 159.536Z"
    fill="url(#paint4_linear_269_9)" />
  <path
    d="M488.6 183.6V94H498.2L498.84 105.776V183.6H488.6ZM520.472 159.536C515.096 159.536 510.36 158.128 506.264 155.312C502.253 152.496 499.139 148.571 496.92 143.536C494.701 138.416 493.592 132.571 493.592 126C493.592 119.344 494.701 113.499 496.92 108.464C499.139 103.429 502.253 99.504 506.264 96.688C510.36 93.872 515.096 92.464 520.472 92.464C526.189 92.464 531.224 93.872 535.576 96.688C539.928 99.504 543.299 103.429 545.688 108.464C548.163 113.499 549.4 119.344 549.4 126C549.4 132.571 548.163 138.416 545.688 143.536C543.299 148.571 539.928 152.496 535.576 155.312C531.224 158.128 526.189 159.536 520.472 159.536ZM518.168 150.192C522.179 150.192 525.72 149.168 528.792 147.12C531.949 145.072 534.424 142.213 536.216 138.544C538.093 134.875 539.032 130.693 539.032 126C539.032 121.307 538.136 117.125 536.344 113.456C534.637 109.787 532.205 106.928 529.048 104.88C525.891 102.832 522.307 101.808 518.296 101.808C514.541 101.808 511.171 102.832 508.184 104.88C505.283 106.928 502.979 109.787 501.272 113.456C499.651 117.125 498.84 121.307 498.84 126C498.84 130.693 499.651 134.875 501.272 138.544C502.979 142.213 505.283 145.072 508.184 147.12C511.085 149.168 514.413 150.192 518.168 150.192Z"
    fill="url(#paint5_linear_269_9)" />
  <path
    d="M672.884 158L672.244 147.504V124.208C672.244 119.173 671.647 115.035 670.452 111.792C669.343 108.464 667.593 105.989 665.204 104.368C662.9 102.661 659.828 101.808 655.988 101.808C652.319 101.808 649.119 102.533 646.388 103.984C643.743 105.435 641.567 107.696 639.86 110.768L630.644 107.056C632.351 104.069 634.399 101.467 636.788 99.248C639.177 97.0293 641.951 95.3653 645.108 94.256C648.351 93.0613 652.02 92.464 656.116 92.464C662.004 92.464 666.911 93.616 670.836 95.92C674.761 98.224 677.705 101.68 679.668 106.288C681.631 110.811 682.569 116.485 682.484 123.312L682.356 158H672.884ZM653.684 159.536C646.175 159.536 640.287 157.829 636.02 154.416C631.839 150.917 629.748 146.096 629.748 139.952C629.748 133.467 631.881 128.517 636.148 125.104C640.5 121.605 646.559 119.856 654.324 119.856H672.628V128.432H656.628C650.655 128.432 646.388 129.413 643.828 131.376C641.353 133.339 640.116 136.155 640.116 139.824C640.116 143.152 641.353 145.797 643.828 147.76C646.303 149.637 649.759 150.576 654.196 150.576C657.865 150.576 661.065 149.723 663.796 148.016C666.527 146.309 668.617 144.005 670.068 141.104C671.519 138.117 672.244 134.747 672.244 130.992H678.516C678.516 139.696 676.383 146.651 672.116 151.856C667.849 156.976 661.705 159.536 653.684 159.536Z"
    fill="url(#paint6_linear_269_9)" />
  <path
    d="M704.342 123.312C704.342 116.4 705.665 110.811 708.31 106.544C710.955 102.192 714.326 98.992 718.422 96.944C722.603 94.8107 726.998 93.744 731.606 93.744V103.344C727.851 103.344 724.225 103.984 720.726 105.264C717.313 106.459 714.497 108.464 712.278 111.28C710.059 114.096 708.95 117.936 708.95 122.8L704.342 123.312ZM698.71 173V94H708.95V173H698.71Z"
    fill="url(#paint7_linear_269_9)" />
  <path
    d="M769.992 159.536C763.763 159.536 758.259 158.128 753.48 155.312C748.701 152.411 744.947 148.443 742.216 143.408C739.571 138.373 738.248 132.571 738.248 126C738.248 119.429 739.571 113.627 742.216 108.592C744.947 103.557 748.659 99.632 753.352 96.816C758.131 93.9147 763.592 92.464 769.736 92.464C775.624 92.464 780.744 93.9573 785.096 96.944C789.533 99.8453 792.947 103.941 795.336 109.232C797.725 114.523 798.92 120.752 798.92 127.92H788.68C788.68 122.459 787.955 117.808 786.504 113.968C785.053 110.043 782.877 107.013 779.976 104.88C777.16 102.747 773.704 101.68 769.608 101.68C765.427 101.68 761.715 102.704 758.472 104.752C755.315 106.715 752.883 109.531 751.176 113.2C749.469 116.869 748.616 121.179 748.616 126.128C748.616 130.992 749.555 135.216 751.432 138.8C753.309 142.299 755.912 145.072 759.24 147.12C762.568 149.083 766.323 150.064 770.504 150.064C774.941 150.064 778.696 148.997 781.768 146.864C784.84 144.731 787.272 141.957 789.064 138.544L798.024 143.024C796.403 146.352 794.227 149.253 791.496 151.728C788.851 154.203 785.693 156.123 782.024 157.488C778.44 158.853 774.429 159.536 769.992 159.536ZM745.032 127.92L745.16 119.088H792.648V127.92H745.032Z"
    fill="url(#paint8_linear_269_9)" />
  <path fill-rule="evenodd" clip-rule="evenodd"
    d="M575.105 155.312C579.884 158.128 585.388 159.536 591.617 159.536C596.054 159.536 600.065 158.853 603.649 157.488C607.318 156.123 610.476 154.203 613.121 151.728L603.393 146.864C600.321 148.997 596.566 150.064 592.129 150.064C587.948 150.064 584.193 149.083 580.865 147.12C577.537 145.072 574.934 142.299 573.057 138.8C571.414 135.664 570.49 132.037 570.285 127.92H610.305H614.273H620.545C620.545 120.752 619.35 114.523 616.961 109.232C614.572 103.941 611.158 99.8453 606.721 96.944C602.369 93.9573 597.249 92.464 591.361 92.464C585.217 92.464 579.756 93.9147 574.977 96.816C570.284 99.632 566.572 103.557 563.841 108.592C561.196 113.627 559.873 119.429 559.873 126C559.873 132.571 561.196 138.373 563.841 143.408C566.572 148.443 570.326 152.411 575.105 155.312ZM609.545 119.088C609.195 117.246 608.723 115.539 608.129 113.968C606.678 110.043 604.502 107.013 601.601 104.88C598.785 102.747 595.329 101.68 591.233 101.68C587.052 101.68 583.34 102.704 580.097 104.752C576.94 106.715 574.508 109.531 572.801 113.2C571.96 115.007 571.327 116.97 570.9 119.088H609.545Z"
    fill="url(#paint9_linear_269_9)" />
  <path
    d="M329.08 94H349.176L324.991 121.009L351.096 158H331.256L313.937 132.754L290.296 157.872V68.4H307.192V118.111L329.08 94Z"
    fill="url(#paint10_linear_269_9)" />
  <defs>
    <linearGradient id="paint0_linear_269_9" x1="69.1201" y1="66.864" x2="778.339" y2="259.409"
      gradientUnits="userSpaceOnUse">
      <stop stop-color="white" />
      <stop offset="0.622917" stop-color="white" />
      <stop offset="1" stop-color="#D9D9D9" stop-opacity="0" />
    </linearGradient>
    <linearGradient id="paint1_linear_269_9" x1="69.1201" y1="66.864" x2="778.339" y2="259.409"
      gradientUnits="userSpaceOnUse">
      <stop stop-color="white" />
      <stop offset="0.622917" stop-color="white" />
      <stop offset="1" stop-color="#D9D9D9" stop-opacity="0" />
    </linearGradient>
    <linearGradient id="paint2_linear_269_9" x1="69.1201" y1="66.864" x2="778.339" y2="259.409"
      gradientUnits="userSpaceOnUse">
      <stop stop-color="white" />
      <stop offset="0.622917" stop-color="white" />
      <stop offset="1" stop-color="#D9D9D9" stop-opacity="0" />
    </linearGradient>
    <linearGradient id="paint3_linear_269_9" x1="69.1201" y1="66.864" x2="778.339" y2="259.409"
      gradientUnits="userSpaceOnUse">
      <stop stop-color="white" />
      <stop offset="0.622917" stop-color="white" />
      <stop offset="1" stop-color="#D9D9D9" stop-opacity="0" />
    </linearGradient>
    <linearGradient id="paint4_linear_269_9" x1="69.1201" y1="66.864" x2="778.339" y2="259.409"
      gradientUnits="userSpaceOnUse">
      <stop stop-color="white" />
      <stop offset="0.622917" stop-color="white" />
      <stop offset="1" stop-color="#D9D9D9" stop-opacity="0" />
    </linearGradient>
    <linearGradient id="paint5_linear_269_9" x1="69.1201" y1="66.864" x2="778.339" y2="259.409"
      gradientUnits="userSpaceOnUse">
      <stop stop-color="white" />
      <stop offset="0.622917" stop-color="white" />
      <stop offset="1" stop-color="#D9D9D9" stop-opacity="0" />
    </linearGradient>
    <linearGradient id="paint6_linear_269_9" x1="69.1201" y1="66.864" x2="778.339" y2="259.409"
      gradientUnits="userSpaceOnUse">
      <stop stop-color="white" />
      <stop offset="0.622917" stop-color="white" />
      <stop offset="1" stop-color="#D9D9D9" stop-opacity="0" />
    </linearGradient>
    <linearGradient id="paint7_linear_269_9" x1="69.1201" y1="66.864" x2="778.339" y2="259.409"
      gradientUnits="userSpaceOnUse">
      <stop stop-color="white" />
      <stop offset="0.622917" stop-color="white" />
      <stop offset="1" stop-color="#D9D9D9" stop-opacity="0" />
    </linearGradient>
    <linearGradient id="paint8_linear_269_9" x1="69.1201" y1="66.864" x2="778.339" y2="259.409"
      gradientUnits="userSpaceOnUse">
      <stop stop-color="white" />
      <stop offset="0.622917" stop-color="white" />
      <stop offset="1" stop-color="#D9D9D9" stop-opacity="0" />
    </linearGradient>
    <linearGradient id="paint9_linear_269_9" x1="69.1201" y1="66.864" x2="778.339" y2="259.409"
      gradientUnits="userSpaceOnUse">
      <stop stop-color="white" />
      <stop offset="0.622917" stop-color="white" />
      <stop offset="1" stop-color="#D9D9D9" stop-opacity="0" />
    </linearGradient>
    <linearGradient id="paint10_linear_269_9" x1="69.1201" y1="66.864" x2="778.339" y2="259.409"
      gradientUnits="userSpaceOnUse">
      <stop stop-color="white" />
      <stop offset="0.622917" stop-color="white" />
      <stop offset="1" stop-color="#D9D9D9" stop-opacity="0" />
    </linearGradient>
  </defs>
</svg>